<?xml version="1.0" encoding="utf-8"?>
<!-- Generator: Adobe Illustrator 24.1.1, SVG Export Plug-In . SVG Version: 6.00 Build 0)  -->
<svg version="1.1" id="Layer_1" xmlns="http://www.w3.org/2000/svg" xmlns:xlink="http://www.w3.org/1999/xlink" x="0px" y="0px"
	 viewBox="0 0 500 500" style="enable-background:new 0 0 500 500;" xml:space="preserve">
<style type="text/css">
	.st0{fill:url(#SVGID_1_);}
	.st1{fill:url(#SVGID_2_);}
	.st2{fill:url(#SVGID_3_);}
	.st3{fill:url(#SVGID_4_);}
</style>
<g>
	<linearGradient id="SVGID_1_" gradientUnits="userSpaceOnUse" x1="31.4625" y1="-31.4625" x2="532.4625" y2="469.5375">
		<stop  offset="0" style="stop-color:#28F29C"/>
		<stop  offset="1" style="stop-color:#0CB8E0"/>
	</linearGradient>
	<path class="st0" d="M365.4,312c7.3-2,12.5-4.4,15.5-7.3c3.1-2.9,4-6.6,2.8-11.1c-0.6-2.2-1.6-4-2.9-5.3c-1.3-1.3-3.1-2.3-5.1-2.8
		c-2.1-0.5-4.5-0.7-7.2-0.5c-2.8,0.2-5.8,0.8-9.2,1.7c-7.3,2-12.5,4.4-15.5,7.3s-4,6.6-2.8,11c0.6,2.2,1.6,4,2.9,5.4
		c1.4,1.3,3.1,2.3,5.1,2.8c2.1,0.5,4.5,0.7,7.2,0.4C358.9,313.5,362,312.9,365.4,312z"/>
	<linearGradient id="SVGID_2_" gradientUnits="userSpaceOnUse" x1="9.1957" y1="-9.1957" x2="510.1956" y2="491.8044">
		<stop  offset="0" style="stop-color:#28F29C"/>
		<stop  offset="1" style="stop-color:#0CB8E0"/>
	</linearGradient>
	<path class="st1" d="M365.3,374.1c2.1,0.5,4.5,0.7,7.2,0.4s5.8-0.8,9.2-1.7c7.3-2,12.5-4.4,15.5-7.3c3.1-2.9,4-6.6,2.8-11.1
		c-0.6-2.2-1.6-4-2.9-5.3c-1.3-1.3-3.1-2.3-5.1-2.8c-2.1-0.5-4.5-0.7-7.2-0.5s-5.8,0.8-9.2,1.7c-7.3,2-12.5,4.4-15.5,7.3
		s-4,6.6-2.8,11c0.6,2.2,1.6,4,2.9,5.4C361.5,372.6,363.2,373.6,365.3,374.1z"/>
	<linearGradient id="SVGID_3_" gradientUnits="userSpaceOnUse" x1="-11.0283" y1="11.0283" x2="489.9717" y2="512.0283">
		<stop  offset="0" style="stop-color:#28F29C"/>
		<stop  offset="1" style="stop-color:#0CB8E0"/>
	</linearGradient>
	<path class="st2" d="M413.1,404.5l-42.2,11.3l1.4,5.1c1.5,5.7,4.4,9.6,8.6,11.6c4.2,2,9.9,2.1,17.2,0.1c3.3-0.9,6.2-2,8.7-3.2
		s4.4-2.7,5.9-4.5s2.4-3.8,2.8-6.2c0.4-2.4,0.1-5.2-0.7-8.4L413.1,404.5z"/>
	<linearGradient id="SVGID_4_" gradientUnits="userSpaceOnUse" x1="-20.56" y1="20.56" x2="480.44" y2="521.56">
		<stop  offset="0" style="stop-color:#28F29C"/>
		<stop  offset="1" style="stop-color:#0CB8E0"/>
	</linearGradient>
	<path class="st3" d="M330.8,32H213.3l-75.8,256.5L35.1,283v0.8l92,39.3L84.9,465.9l109.1,1.2l25.7-104.6l118.2,50.6l12.9,52.1
		l113.5,2.6L330.8,32z M236,294.5l34.7-141.3l37.5,145L236,294.5z M310.4,228.9l61.6-16.5l9.8,36.4l-9.8,2.6l-6.6-24.6l-17.1,4.6
		l6.2,23.3l-9.5,2.6l-6.2-23.3l-25.2,6.8L310.4,228.9z M334.9,316.9c-2.1-2.7-3.6-5.8-4.5-9.3c-2.2-8.1-1.1-14.9,3.2-20.5
		c4.3-5.5,11.6-9.7,21.9-12.4c5.6-1.5,10.6-2.1,15-1.9c4.4,0.2,8.2,1.1,11.4,2.7s5.9,3.7,8,6.5c2.1,2.7,3.6,5.8,4.5,9.3
		c2.2,8.1,1.1,14.9-3.2,20.5c-4.3,5.5-11.6,9.7-21.9,12.4c-5.6,1.5-10.6,2.1-15,1.9c-4.4-0.2-8.2-1.1-11.4-2.7
		C339.6,321.8,336.9,319.6,334.9,316.9z M351.2,377.7c-2.1-2.7-3.6-5.8-4.5-9.3c-2.2-8.1-1.1-14.9,3.2-20.5
		c4.3-5.5,11.6-9.7,21.9-12.4c5.6-1.5,10.6-2.1,15-1.9c4.4,0.2,8.2,1.1,11.4,2.7s5.9,3.7,7.9,6.5c2.1,2.7,3.6,5.8,4.5,9.3
		c2.2,8.1,1.1,14.9-3.2,20.5c-4.3,5.5-11.6,9.7-21.9,12.4c-5.6,1.5-10.6,2.1-15,1.9c-4.4-0.2-8.2-1.1-11.4-2.7
		C355.9,382.6,353.2,380.4,351.2,377.7z M423.1,431.7c-1.8,3-4.5,5.6-7.9,7.8s-7.8,4-13,5.4c-4.8,1.3-9.3,1.9-13.5,1.7
		c-4.2-0.1-8-1.1-11.5-2.8c-3.4-1.8-6.4-4.4-8.9-7.9s-4.5-8-6-13.4l-4.2-15.7l61.6-16.5l4.9,18.3c1.3,4.7,1.8,9,1.5,12.9
		C425.9,425.2,424.9,428.7,423.1,431.7z"/>
</g>
</svg>
